<svg width="1401" height="545" viewBox="0 0 1401 545" fill="none" xmlns="http://www.w3.org/2000/svg">
<path opacity="0.4" d="M1223.26 427.956C1222.23 424.1 1220.17 420.708 1217.35 418.038C1219.66 412.602 1219.31 406.362 1216.36 401.236C1213.54 396.325 1208.98 392.81 1203.52 391.341C1199.68 390.309 1195.72 390.399 1192 391.521C1188.46 386.793 1182.95 383.974 1177.03 383.974C1167.06 383.974 1158.7 390.941 1156.48 400.274C1156.46 400.276 1156.44 400.267 1156.42 400.269C1150.53 401.004 1145.44 404.388 1142.48 409.549C1139.65 414.46 1138.9 420.184 1140.36 425.663C1141.39 429.52 1143.45 432.916 1146.27 435.587C1143.97 441.025 1144.3 447.242 1147.26 452.382C1150.08 457.294 1154.64 460.809 1160.1 462.277C1161.92 462.767 1163.77 463.01 1165.6 463.01C1167.64 463.01 1169.66 462.681 1171.61 462.092C1175.15 466.828 1180.64 469.645 1186.59 469.645C1196.57 469.645 1204.93 462.665 1207.15 453.32C1213 452.607 1218.18 449.229 1221.14 444.07C1223.97 439.158 1224.72 433.435 1223.26 427.956ZM1202.47 395.28C1206.88 396.465 1210.56 399.307 1212.84 403.274C1214.97 406.98 1215.37 411.433 1214 415.446C1213.8 415.319 1213.61 415.178 1213.4 415.058L1194.78 404.259C1194.14 403.894 1193.36 403.898 1192.72 404.272L1172.01 416.594L1171.9 407.197L1189.5 396.996C1193.46 394.703 1198.06 394.097 1202.47 395.28ZM1191.43 421.088L1191.56 432.315L1181.94 438.036L1172.19 432.531L1172.06 421.304L1181.68 415.582L1191.43 421.088ZM1159.94 405.212C1159.94 395.749 1167.61 388.053 1177.03 388.053C1181.31 388.053 1185.34 389.922 1188.12 393.128C1187.9 393.242 1187.68 393.338 1187.47 393.461L1168.84 404.259C1168.21 404.629 1167.82 405.314 1167.83 406.048L1168.1 430.222L1159.94 425.616V405.212ZM1144.29 424.608C1143.11 420.182 1143.71 415.556 1145.99 411.588C1148.15 407.843 1151.73 405.318 1155.92 404.502C1155.91 404.739 1155.88 404.971 1155.88 405.212V426.809C1155.88 427.546 1156.27 428.225 1156.91 428.588L1177.9 440.439L1169.84 445.229L1152.25 435.026C1148.3 432.735 1145.47 429.037 1144.29 424.608ZM1161.15 458.338C1156.74 457.153 1153.06 454.312 1150.78 450.344C1148.64 446.624 1148.24 442.183 1149.61 438.167C1149.82 438.295 1150.01 438.438 1150.22 438.561L1168.84 449.359C1169.16 449.541 1169.51 449.633 1169.86 449.633C1170.22 449.633 1170.58 449.537 1170.9 449.347L1191.61 437.025L1191.72 446.422L1174.12 456.623C1170.17 458.918 1165.56 459.528 1161.15 458.338ZM1203.68 448.407C1203.68 457.869 1196.01 465.565 1186.59 465.565C1182.28 465.565 1178.27 463.691 1175.5 460.478C1175.71 460.364 1175.94 460.278 1176.15 460.156L1194.78 449.357C1195.41 448.988 1195.8 448.303 1195.79 447.568L1195.52 423.397L1203.68 428.003V448.407ZM1217.62 442.03C1215.48 445.763 1211.86 448.325 1207.7 449.135C1207.71 448.89 1207.74 448.651 1207.74 448.407V426.809C1207.74 426.073 1207.34 425.394 1206.7 425.031L1185.72 413.179L1193.77 408.39L1211.37 418.593C1215.32 420.884 1218.15 424.584 1219.33 429.01C1220.51 433.437 1219.91 438.063 1217.62 442.03Z" fill="black"/>
<circle opacity="0.1" cx="1181.48" cy="426.48" r="55.1864" stroke="black"/>
<circle opacity="0.1" cx="1181.19" cy="426.185" r="68.685" stroke="black"/>
<circle opacity="0.1" cx="1180.69" cy="425.685" r="82.185" stroke="black"/>
<path opacity="0.4" d="M1304.68 110C1289.57 110 1280.12 117.555 1276.34 132.665C1282.01 125.11 1288.62 122.278 1296.18 124.165C1300.49 125.242 1303.57 128.372 1306.99 131.834C1312.54 137.471 1318.97 143.999 1333.02 143.999C1348.14 143.999 1357.58 136.444 1361.36 121.331C1355.69 128.886 1349.08 131.72 1341.52 129.833C1337.21 128.757 1334.13 125.627 1330.72 122.165C1325.16 116.525 1318.73 110 1304.68 110ZM1276.34 143.999C1261.23 143.999 1251.78 151.554 1248 166.666C1253.67 159.111 1260.28 156.277 1267.84 158.167C1272.15 159.246 1275.23 162.373 1278.64 165.833C1284.2 171.472 1290.63 178 1304.68 178C1319.8 178 1329.24 170.445 1333.02 155.333C1327.35 162.888 1320.74 165.722 1313.18 163.832C1308.87 162.755 1305.79 159.626 1302.38 156.166C1296.82 150.527 1290.39 143.999 1276.34 143.999Z" fill="black"/>
<circle opacity="0.1" cx="1304.5" cy="143.5" r="69" stroke="black"/>
<circle opacity="0.1" cx="1305" cy="144" r="82.5" stroke="black"/>
<circle opacity="0.1" cx="1304.5" cy="143.5" r="96" stroke="black"/>
<path opacity="0.4" d="M1008.42 256.304L1009.54 256.147C1010.33 256.036 1011.03 255.56 1011.42 254.861L1017.18 244.565L1025.56 252.873C1026.13 253.437 1026.93 253.703 1027.72 253.592L1028.84 253.435L1018.15 242.838L1025.17 230.291L1024.06 230.448C1023.26 230.56 1022.57 231.035 1022.18 231.734L1016.74 241.443L1008.84 233.608C1008.27 233.044 1007.47 232.779 1006.68 232.89L1005.56 233.047L1015.77 243.172L1008.42 256.304Z" fill="#212121"/>
<path opacity="0.4" d="M1007.17 245.343L1006.78 242.509C1005.89 236.204 999.573 232 993.217 233.961C988.269 235.488 985.312 240.572 986.032 245.699L986.127 246.375L986.393 248.264L986.412 248.398C987.282 254.589 992.489 258.898 998.252 258.157C1003.07 257.538 1006.68 253.752 1007.3 249.179L1006.33 249.316C1005.75 249.398 1005.26 249.808 1005.08 250.371C1003.92 253.998 1000.39 256.677 996.065 256.303C992.075 255.957 988.943 252.704 988.386 248.738L988.282 247.999L1007.17 245.343ZM987.978 245.835C987.353 241.388 989.491 237.38 993.26 235.963C998.635 233.944 1004.14 237.44 1004.89 242.775L1005.02 243.72L988.017 246.109L987.978 245.835Z" fill="#212121"/>
<circle opacity="0.1" cx="1007" cy="244" r="30.5" transform="rotate(-8 1007 244)" stroke="black"/>
<circle opacity="0.1" cx="1007.26" cy="244.26" r="44" transform="rotate(-8 1007.26 244.26)" stroke="black"/>
<circle opacity="0.1" cx="1006.51" cy="243.508" r="57.5" transform="rotate(-8 1006.51 243.508)" stroke="black"/>
<path opacity="0.4" d="M743.95 85.4801C742.634 84.9215 741.181 84.6864 739.77 84.8543L695.272 90.3469C692.397 90.7036 689.884 92.6227 688.75 95.295L672.841 132.775C671.691 135.484 672.071 138.588 673.811 140.904L680.892 150.302C684.484 154.469 686.105 155.154 688.16 156.026C694.902 158.888 700.49 156.444 703.494 149.366L719.909 110.694C720.155 110.116 719.89 109.445 719.313 109.201L714.807 107.288C714.194 107.028 713.557 107.315 713.311 107.893L696.911 146.53C695.562 149.708 690.967 151.422 686.786 146.536L679.385 136.702C679.101 136.368 679.052 135.881 679.22 135.483L695.115 98.0383C695.299 97.6049 695.671 97.3314 696.123 97.2677L740.619 91.7823C741.035 91.7033 741.47 91.8878 741.738 92.2575L768.701 128.075C768.97 128.445 769.031 128.904 768.863 129.301L752.953 166.781C752.785 167.178 752.399 167.482 751.998 167.524L707.449 173.037C707.048 173.08 706.578 172.88 706.33 172.562L699.448 163.206C699.272 162.919 698.932 162.734 698.618 162.771C695.446 163.129 694.901 163.109 692.169 162.93C691.515 162.866 690.46 162.843 691.834 164.619L700.757 176.764C701.634 177.904 702.784 178.815 704.082 179.366C705.416 179.932 706.861 180.122 708.291 179.962L752.847 174.452C755.721 174.096 758.218 172.213 759.368 169.504L775.263 132.059C776.412 129.351 776.032 126.246 774.292 123.931L747.304 88.0526C746.445 86.9205 745.266 86.0387 743.95 85.4801ZM741.29 118.471C731.087 114.14 723.158 115.885 720.092 123.107C716.766 130.944 721.899 135.676 731.291 140.813C742.518 146.943 742.681 149.064 741.7 151.375C740.014 155.347 736.09 155.686 728.555 152.487C719.073 148.463 717.993 145.188 719.301 140.202C719.444 139.666 719.167 139.121 718.662 138.907L714.008 136.932C713.431 136.687 712.8 136.978 712.57 137.52C710.01 143.55 710.243 152.123 725.89 158.765C737.211 163.57 745.597 161.852 748.908 154.051C752.188 146.323 747.835 142.042 737.503 135.909C726.976 129.735 726.179 128.502 727.283 125.902C728.202 123.735 730.388 121.301 738.608 124.791C745.926 127.897 747.993 130.644 747.01 136.065C746.919 136.581 747.159 137.111 747.664 137.325L752.319 139.301C752.607 139.423 752.916 139.386 753.225 139.261C753.482 139.157 753.715 138.912 753.816 138.571C756.713 129.743 752.755 123.338 741.29 118.471Z" fill="black"/>
<circle opacity="0.1" cx="723.779" cy="131.779" r="73" transform="rotate(23 723.779 131.779)" stroke="black"/>
<circle opacity="0.1" cx="724.044" cy="132.435" r="86.5" transform="rotate(23 724.044 132.435)" stroke="black"/>
<circle opacity="0.1" cx="723.779" cy="131.779" r="100" transform="rotate(23 723.779 131.779)" stroke="black"/>
<path opacity="0.4" d="M467.72 198.003C467.009 197.979 466.264 198.105 465.517 198.351C464.023 198.844 462.458 199.803 460.852 201.132C460.223 201.653 459.587 202.248 458.95 202.88C458.327 202.264 457.705 201.683 457.089 201.174C455.484 199.846 453.923 198.888 452.433 198.396C450.943 197.905 449.46 197.89 448.242 198.605C447.025 199.32 446.296 200.633 445.97 202.191C445.643 203.749 445.677 205.605 446.005 207.682C446.119 208.404 446.284 209.161 446.469 209.932C445.773 210.146 445.097 210.372 444.471 210.621C442.579 211.372 441.015 212.271 439.875 213.34C438.736 214.41 438 215.708 438 217.133C438 218.558 438.736 219.854 439.875 220.924C441.015 221.993 442.579 222.894 444.471 223.645C445.141 223.911 445.866 224.151 446.615 224.377C446.346 225.401 446.127 226.394 445.979 227.336C445.65 229.415 445.616 231.271 445.943 232.833C446.27 234.394 446.999 235.715 448.223 236.433C449.447 237.152 450.936 237.134 452.43 236.642C453.923 236.149 455.487 235.191 457.093 233.862C457.716 233.346 458.347 232.758 458.979 232.133C459.613 232.761 460.247 233.353 460.873 233.872C462.478 235.199 464.041 236.158 465.531 236.649C467.021 237.14 468.502 237.155 469.72 236.44C470.938 235.725 471.666 234.413 471.993 232.854C472.32 231.296 472.284 229.441 471.955 227.363C471.806 226.419 471.588 225.424 471.317 224.397C472.091 224.165 472.839 223.919 473.529 223.645C475.421 222.894 476.985 221.993 478.125 220.924C479.264 219.854 480 218.558 480 217.133C480 215.708 479.264 214.41 478.125 213.34C476.985 212.271 475.421 211.372 473.529 210.621C472.894 210.368 472.208 210.14 471.501 209.923C471.688 209.147 471.853 208.385 471.968 207.659C472.296 205.579 472.331 203.722 472.004 202.16C471.676 200.598 470.946 199.28 469.722 198.561C469.11 198.202 468.432 198.027 467.72 198.003ZM467.636 199.892C468.083 199.904 468.464 200.013 468.79 200.204C469.441 200.587 469.923 201.331 470.18 202.557C470.437 203.783 470.428 205.439 470.125 207.359C470.021 208.017 469.87 208.714 469.699 209.428C467.832 208.971 465.787 208.632 463.608 208.433C462.513 206.89 461.387 205.486 460.253 204.239C460.853 203.644 461.449 203.087 462.03 202.606C463.514 201.378 464.919 200.543 466.091 200.157C466.677 199.963 467.19 199.88 467.636 199.892ZM450.317 199.897C450.766 199.885 451.28 199.968 451.868 200.162C453.044 200.55 454.451 201.385 455.936 202.613C456.506 203.085 457.088 203.629 457.676 204.21C456.533 205.467 455.4 206.885 454.298 208.442C452.126 208.645 450.088 208.987 448.23 209.446C448.06 208.735 447.911 208.041 447.807 207.387C447.504 205.464 447.496 203.806 447.754 202.577C448.012 201.348 448.497 200.599 449.155 200.213C449.484 200.02 449.868 199.91 450.317 199.897ZM458.979 205.576C459.722 206.398 460.466 207.299 461.203 208.268C460.479 208.237 459.745 208.219 459 208.219C458.24 208.219 457.493 208.238 456.754 208.27C457.492 207.3 458.235 206.399 458.979 205.576ZM459 210.093C460.241 210.093 461.451 210.145 462.627 210.233C463.437 211.416 464.228 212.67 464.982 213.998C465.645 215.165 466.244 216.33 466.79 217.481C466.238 218.647 465.629 219.828 464.957 221.011C464.366 222.052 463.749 223.041 463.121 223.995C461.792 224.108 460.415 224.171 459 224.171C457.551 224.171 456.143 224.104 454.784 223.986C454.167 223.046 453.56 222.07 452.979 221.045C452.309 219.865 451.702 218.688 451.152 217.524C451.704 216.354 452.314 215.169 452.988 213.982C453.737 212.661 454.526 211.413 455.332 210.237C456.521 210.147 457.745 210.093 459 210.093ZM464.979 210.465C466.482 210.656 467.894 210.921 469.209 211.239C468.818 212.54 468.338 213.898 467.756 215.3C467.378 214.559 466.986 213.815 466.563 213.07C466.051 212.168 465.518 211.306 464.979 210.465ZM452.925 210.479C452.397 211.305 451.877 212.149 451.374 213.034C450.946 213.789 450.546 214.542 450.164 215.293C449.587 213.899 449.109 212.549 448.722 211.255C450.027 210.937 451.431 210.673 452.925 210.479ZM471.014 211.732C471.661 211.931 472.286 212.139 472.859 212.367C474.602 213.059 475.981 213.879 476.875 214.718C477.769 215.557 478.157 216.357 478.157 217.133C478.157 217.909 477.769 218.709 476.875 219.548C475.981 220.386 474.602 221.207 472.859 221.899C472.222 222.152 471.523 222.381 470.795 222.599C470.276 220.966 469.614 219.263 468.825 217.524C469.732 215.528 470.464 213.582 471.014 211.732ZM446.955 211.741C447.499 213.573 448.222 215.5 449.116 217.476C448.322 219.224 447.657 220.937 447.135 222.579C446.434 222.367 445.758 222.144 445.141 221.899C443.398 221.207 442.019 220.386 441.125 219.548C440.231 218.709 439.843 217.909 439.843 217.133C439.843 216.357 440.231 215.557 441.125 214.718C442.019 213.879 443.398 213.059 445.141 212.367C445.705 212.143 446.319 211.938 446.955 211.741ZM459 212.869C456.491 212.869 454.437 214.958 454.437 217.51C454.437 220.062 456.491 222.151 459 222.151C461.509 222.151 463.563 220.062 463.563 217.51C463.563 214.958 461.509 212.869 459 212.869ZM459 214.725C460.523 214.725 461.738 215.961 461.738 217.51C461.738 219.059 460.523 220.295 459 220.295C457.477 220.295 456.262 219.059 456.262 217.51C456.262 215.961 457.477 214.725 459 214.725ZM467.779 219.704C468.258 220.856 468.674 221.983 469.023 223.07C467.926 223.329 466.757 223.547 465.528 223.719C465.881 223.145 466.231 222.56 466.572 221.959C467 221.205 467.397 220.453 467.779 219.704ZM450.185 219.705C450.569 220.459 450.969 221.215 451.399 221.973C451.736 222.567 452.08 223.146 452.43 223.714C451.204 223.541 450.039 223.322 448.945 223.063C449.293 221.979 449.709 220.854 450.185 219.705ZM448.419 224.865C450.071 225.263 451.861 225.569 453.759 225.768C455.027 227.632 456.347 229.307 457.676 230.771C457.081 231.361 456.493 231.914 455.916 232.39C454.433 233.618 453.026 234.451 451.854 234.838C450.682 235.224 449.807 235.173 449.155 234.791C448.503 234.408 448.023 233.663 447.766 232.438C447.51 231.212 447.517 229.557 447.82 227.637C447.958 226.766 448.163 225.833 448.419 224.865ZM469.551 224.872C469.808 225.845 470.015 226.783 470.153 227.659C470.457 229.581 470.465 231.237 470.207 232.467C469.949 233.696 469.465 234.446 468.807 234.832C468.15 235.219 467.268 235.271 466.093 234.883C464.917 234.495 463.51 233.659 462.025 232.43C461.444 231.95 460.852 231.394 460.253 230.8C461.591 229.33 462.92 227.647 464.196 225.771C466.099 225.574 467.895 225.27 469.551 224.872ZM456.141 225.958C457.078 226.01 458.027 226.045 459 226.045C459.94 226.045 460.859 226.012 461.766 225.964C460.839 227.236 459.894 228.393 458.952 229.435C458.011 228.391 457.067 227.232 456.141 225.958Z" fill="black"/>
<circle opacity="0.1" cx="458.5" cy="217.5" r="30" stroke="black"/>
<circle opacity="0.1" cx="459" cy="218" r="43.5" stroke="black"/>
<circle opacity="0.1" cx="458.5" cy="217.5" r="57" stroke="black"/>
<path opacity="0.4" d="M251.26 430.949L252.268 433.112L275.461 482.849L327.361 458.648L303.159 406.748L251.26 430.949ZM257.601 433.258L300.851 413.09L321.019 456.34L277.769 476.507L257.601 433.258ZM275.02 446.197L276.908 450.247L282.433 447.671L290.644 465.28L295.188 463.16L286.977 445.552L292.616 442.923L290.727 438.872L275.02 446.197ZM297.627 436.082C294.582 437.782 292.044 440.572 294.081 444.939C297.077 451.364 305.732 447.332 307.084 450.23C307.212 450.504 308.263 452.446 305.208 453.871C302.152 455.296 298.711 454.561 298.711 454.561L300.883 459.219C300.883 459.219 316.209 457.317 311.68 447.603C308.739 441.297 300.152 445.687 298.691 442.553C298.124 441.338 298.457 439.798 300.846 438.684C303.236 437.57 306.006 437.995 306.006 437.995L304.227 433.77C304.227 433.77 300.673 434.381 297.627 436.082Z" fill="black"/>
<circle opacity="0.1" cx="288.846" cy="444.63" r="47.3373" transform="rotate(-25 288.846 444.63)" stroke="black"/>
<circle opacity="0.1" cx="288.51" cy="444.509" r="60.835" transform="rotate(-25 288.51 444.509)" stroke="black"/>
<circle opacity="0.1" cx="289.45" cy="445.45" r="74.335" transform="rotate(-25 289.45 445.45)" stroke="black"/>
<path opacity="0.4" d="M89.93 185.393C88.5082 188.184 85.0928 189.296 82.299 187.873C79.5051 186.449 78.3976 183.032 79.8195 180.242L103.86 133.059C104.982 130.858 107.4 129.637 109.838 130.034C112.284 130.44 114.174 132.371 114.529 134.815L130.367 243.511C153.926 240.114 175.586 225.79 187.151 203.091C206.04 166.019 191.163 120.233 154.091 101.344C117.019 82.4547 71.233 97.3316 52.3439 134.404C33.4547 171.476 48.3316 217.262 85.4036 236.151C96.1613 241.632 107.653 244.189 119.008 244.265L105.872 154.104L89.93 185.393ZM149.39 152.012C150.812 149.222 154.227 148.109 157.021 149.533C159.815 150.957 160.922 154.374 159.5 157.164L135.734 203.807L132.882 184.41L149.39 152.012Z" fill="#212121"/>
<circle opacity="0.1" cx="119.5" cy="168.5" r="92" stroke="black"/>
<circle opacity="0.1" cx="120" cy="169" r="105.5" stroke="black"/>
<circle opacity="0.1" cx="119.5" cy="168.5" r="119" stroke="black"/>
</svg>
