<svg width="402" height="131" viewBox="0 0 402 131" fill="none" xmlns="http://www.w3.org/2000/svg">
<path opacity="0.4" d="M381.227 -1.92743C374.626 -1.92743 370.5 1.43906 368.849 8.17204C371.325 4.80555 374.213 3.54378 377.514 4.38461C379.397 4.86448 380.744 6.25886 382.234 7.80161C384.66 10.3136 387.469 13.2223 393.605 13.2223C400.207 13.2223 404.333 9.85581 405.984 3.12178C403.508 6.48827 400.62 7.7511 397.319 6.91027C395.436 6.43039 394.09 5.03602 392.6 3.49326C390.173 0.980233 387.363 -1.92743 381.227 -1.92743ZM368.849 13.2223C362.247 13.2223 358.121 16.5888 356.471 23.3228C358.947 19.9563 361.835 18.6935 365.136 19.5354C367.018 20.0163 368.364 21.4096 369.855 22.9513C372.282 25.4644 375.092 28.3731 381.227 28.3731C387.829 28.3731 391.955 25.0066 393.605 18.2726C391.13 21.6391 388.242 22.9019 384.941 22.06C383.057 21.5801 381.711 20.1858 380.221 18.644C377.794 16.131 374.986 13.2223 368.849 13.2223Z" fill="black"/>
<path opacity="0.1" d="M411.004 13C411.004 29.837 397.628 43.469 381.148 43.469C364.669 43.469 351.293 29.837 351.293 13C351.293 -3.83695 364.669 -17.4689 381.148 -17.4689C397.628 -17.4689 411.004 -3.83695 411.004 13Z" stroke="black"/>
<path opacity="0.1" d="M417.119 13.2228C417.119 33.3821 401.103 49.7073 381.367 49.7073C361.631 49.7073 345.615 33.3821 345.615 13.2228C345.615 -6.93649 361.631 -23.2617 381.367 -23.2617C401.103 -23.2617 417.119 -6.93649 417.119 13.2228Z" stroke="black"/>
<path opacity="0.1" d="M422.797 13C422.797 36.4816 404.141 55.5 381.148 55.5C358.156 55.5 339.5 36.4816 339.5 13C339.5 -10.4816 358.156 -29.5 381.148 -29.5C404.141 -29.5 422.797 -10.4816 422.797 13Z" stroke="black"/>
<path opacity="0.4" d="M302.758 94.8183C302.3 93.1021 301.385 91.5921 300.13 90.4035C301.155 87.9836 301.001 85.206 299.69 82.9241C298.432 80.7376 296.402 79.1731 293.973 78.5193C292.263 78.0598 290.501 78.0998 288.846 78.5992C287.27 76.4944 284.816 75.2395 282.18 75.2395C277.744 75.2395 274.023 78.3413 273.032 82.4955C273.023 82.4964 273.015 82.4928 273.006 82.4937C270.382 82.8206 268.119 84.327 266.798 86.6243C265.54 88.8108 265.207 91.3587 265.858 93.7977C266.316 95.5148 267.231 97.0266 268.488 98.2152C267.463 100.636 267.611 103.404 268.926 105.692C270.184 107.878 272.214 109.443 274.643 110.097C275.453 110.315 276.277 110.423 277.094 110.423C278.001 110.423 278.898 110.276 279.768 110.014C281.344 112.123 283.788 113.376 286.436 113.376C290.877 113.376 294.599 110.269 295.587 106.11C298.191 105.792 300.498 104.288 301.818 101.992C303.075 99.8052 303.409 97.2573 302.758 94.8183ZM293.504 80.2727C295.468 80.8002 297.107 82.0651 298.123 83.8312C299.071 85.4811 299.247 87.4633 298.637 89.2494C298.548 89.1931 298.463 89.1304 298.371 89.0769L290.08 84.2698C289.798 84.1073 289.449 84.1091 289.167 84.2752L279.945 89.7606L279.898 85.5773L287.731 81.0363C289.492 80.0157 291.542 79.746 293.504 80.2727ZM288.591 91.761L288.647 96.7587L284.365 99.3058L280.025 96.855L279.969 91.8572L284.252 89.3102L288.591 91.761ZM274.573 84.6938C274.573 80.4815 277.986 77.0555 282.18 77.0555C284.087 77.0555 285.88 77.8873 287.116 79.3147C287.021 79.3656 286.922 79.4082 286.828 79.4627L278.536 84.2698C278.254 84.4341 278.08 84.7392 278.084 85.0661L278.204 95.8271L274.573 93.7768V84.6938ZM267.604 93.3282C267.079 91.3578 267.349 89.2984 268.364 87.5323C269.323 85.8652 270.917 84.7411 272.781 84.3778C272.777 84.4832 272.765 84.5867 272.765 84.6938V94.308C272.765 94.6358 272.941 94.9382 273.226 95.0998L282.566 100.375L278.982 102.507L271.149 97.9655C269.389 96.9458 268.13 95.2996 267.604 93.3282ZM275.111 108.343C273.148 107.816 271.509 106.551 270.493 104.785C269.541 103.129 269.364 101.152 269.975 99.3639C270.066 99.4211 270.152 99.4846 270.245 99.5391L278.537 104.346C278.676 104.427 278.832 104.468 278.989 104.468C279.149 104.468 279.308 104.425 279.45 104.341L288.672 98.8554L288.719 103.039L280.885 107.58C279.125 108.601 277.074 108.873 275.111 108.343ZM294.042 103.922C294.042 108.134 290.631 111.56 286.436 111.56C284.519 111.56 282.733 110.726 281.499 109.296C281.594 109.245 281.694 109.207 281.789 109.152L290.081 104.345C290.363 104.181 290.537 103.876 290.533 103.549L290.412 92.7889L294.042 94.8392V103.922ZM300.251 101.084C299.296 102.745 297.683 103.886 295.835 104.246C295.838 104.137 295.851 104.031 295.851 103.922V94.308C295.851 93.9802 295.675 93.6778 295.39 93.5162L286.049 88.2406L289.634 86.1085L297.467 90.6505C299.227 91.6702 300.485 93.3173 301.012 95.2878C301.537 97.2582 301.267 99.3176 300.251 101.084Z" fill="black"/>
<circle opacity="0.1" cx="284.161" cy="94.1613" r="24.289" stroke="black"/>
<circle opacity="0.1" cx="284.03" cy="94.0301" r="30.298" stroke="black"/>
<circle opacity="0.1" cx="283.808" cy="93.8076" r="36.3076" stroke="black"/>
<path opacity="0.4" d="M187.745 15.3601C187.364 15.3471 186.965 15.4147 186.565 15.5466C185.765 15.8104 184.926 16.3246 184.066 17.0365C183.729 17.3155 183.388 17.6344 183.047 17.9728C182.713 17.643 182.38 17.3317 182.05 17.0589C181.19 16.3475 180.354 15.8341 179.555 15.5709C178.757 15.3076 177.963 15.2995 177.31 15.6826C176.658 16.0657 176.268 16.7689 176.093 17.6037C175.918 18.4386 175.936 19.4327 176.112 20.5457C176.173 20.9323 176.261 21.3379 176.36 21.7511C175.987 21.866 175.625 21.9868 175.289 22.1201C174.276 22.5226 173.438 23.0041 172.828 23.577C172.217 24.15 171.823 24.8454 171.823 25.6089C171.823 26.3725 172.217 27.0669 172.828 27.6399C173.438 28.2128 174.276 28.6953 175.289 29.0977C175.648 29.2403 176.037 29.3687 176.438 29.4901C176.294 30.0386 176.177 30.5708 176.097 31.0752C175.921 32.1891 175.903 33.1834 176.078 34.0201C176.254 34.8569 176.644 35.5641 177.3 35.9491C177.955 36.3341 178.753 36.3246 179.554 36.0608C180.354 35.7969 181.191 35.2837 182.052 34.5718C182.386 34.2954 182.724 33.9801 183.062 33.6452C183.402 33.9819 183.742 34.299 184.077 34.5767C184.937 35.288 185.774 35.8014 186.573 36.0647C187.371 36.3279 188.165 36.3361 188.817 35.953C189.469 35.5699 189.86 34.8666 190.035 34.0318C190.21 33.197 190.19 32.2028 190.014 31.0898C189.935 30.584 189.818 30.051 189.673 29.5008C190.087 29.3765 190.488 29.2446 190.858 29.0977C191.871 28.6953 192.709 28.2128 193.32 27.6399C193.93 27.0669 194.324 26.3725 194.324 25.6089C194.324 24.8454 193.93 24.15 193.32 23.577C192.709 23.0041 191.871 22.5226 190.858 22.1201C190.517 21.9849 190.15 21.8625 189.771 21.7462C189.871 21.3305 189.96 20.922 190.021 20.5331C190.197 19.4192 190.216 18.4239 190.04 17.5872C189.865 16.7505 189.474 16.0443 188.818 15.6593C188.49 15.4668 188.127 15.3731 187.745 15.3601ZM187.701 16.3722C187.94 16.3788 188.144 16.4367 188.318 16.5392C188.668 16.7442 188.926 17.1433 189.063 17.7999C189.201 18.4566 189.196 19.3439 189.034 20.3728C188.978 20.7251 188.897 21.0985 188.805 21.481C187.806 21.2363 186.71 21.0546 185.542 20.9478C184.956 20.1212 184.353 19.3693 183.745 18.7013C184.066 18.3823 184.386 18.0839 184.697 17.8262C185.492 17.1685 186.245 16.7211 186.873 16.514C187.187 16.4104 187.461 16.3655 187.701 16.3722ZM178.422 16.3751C178.662 16.3683 178.938 16.4131 179.253 16.5169C179.883 16.7246 180.636 17.1718 181.432 17.83C181.737 18.0826 182.049 18.3744 182.364 18.6857C181.752 19.359 181.145 20.1188 180.554 20.9527C179.391 21.0614 178.299 21.2449 177.304 21.4908C177.212 21.11 177.133 20.7382 177.077 20.3874C176.915 19.3576 176.911 18.4692 177.049 17.8106C177.187 17.152 177.447 16.751 177.799 16.5441C177.975 16.4406 178.181 16.3819 178.422 16.3751ZM183.062 19.4171C183.46 19.8579 183.859 20.3404 184.254 20.8594C183.866 20.843 183.473 20.8332 183.074 20.8332C182.667 20.8332 182.266 20.8433 181.87 20.8604C182.266 20.3409 182.664 19.8583 183.062 19.4171ZM183.074 21.8375C183.739 21.8375 184.387 21.8653 185.017 21.9123C185.451 22.5459 185.875 23.2181 186.279 23.9296C186.633 24.5548 186.955 25.179 187.247 25.7954C186.952 26.42 186.625 27.0527 186.265 27.6865C185.948 28.2444 185.618 28.7743 185.282 29.2852C184.569 29.3457 183.832 29.3794 183.074 29.3794C182.297 29.3794 181.543 29.3437 180.815 29.2803C180.484 28.7768 180.159 28.2539 179.848 27.7049C179.489 27.0726 179.164 26.4421 178.869 25.8187C179.165 25.1919 179.491 24.5569 179.852 23.9209C180.254 23.2131 180.677 22.5448 181.108 21.9142C181.745 21.8662 182.401 21.8375 183.074 21.8375ZM186.277 22.0366C187.082 22.1389 187.839 22.281 188.543 22.4513C188.334 23.1481 188.076 23.8759 187.765 24.627C187.562 24.2299 187.352 23.8315 187.126 23.4323C186.851 22.9488 186.566 22.4871 186.277 22.0366ZM179.819 22.0444C179.536 22.4866 179.257 22.9389 178.988 23.4129C178.759 23.8172 178.545 24.221 178.34 24.6231C178.031 23.8765 177.775 23.1529 177.567 22.4601C178.266 22.2893 179.019 22.1478 179.819 22.0444ZM189.51 22.7155C189.857 22.8222 190.192 22.9335 190.499 23.0555C191.433 23.4265 192.171 23.8658 192.65 24.3152C193.129 24.7646 193.337 25.1932 193.337 25.6089C193.337 26.0247 193.129 26.4533 192.65 26.9027C192.171 27.3521 191.433 27.7914 190.499 28.1624C190.157 28.298 189.783 28.4209 189.393 28.5373C189.115 27.6627 188.76 26.7502 188.338 25.8187C188.823 24.7493 189.215 23.7066 189.51 22.7155ZM176.621 22.7204C176.912 23.7015 177.299 24.7339 177.778 25.7925C177.353 26.7294 176.996 27.6471 176.717 28.5266C176.341 28.4132 175.979 28.2937 175.649 28.1624C174.715 27.7914 173.976 27.3521 173.497 26.9027C173.018 26.4533 172.81 26.0247 172.81 25.6089C172.81 25.1932 173.018 24.7646 173.497 24.3152C173.976 23.8658 174.715 23.4265 175.649 23.0555C175.951 22.9354 176.28 22.8257 176.621 22.7204ZM183.074 23.3245C181.729 23.3245 180.629 24.4436 180.629 25.811C180.629 27.1783 181.729 28.2974 183.074 28.2974C184.418 28.2974 185.518 27.1783 185.518 25.811C185.518 24.4436 184.418 23.3245 183.074 23.3245ZM183.074 24.3191C183.89 24.3191 184.54 24.9811 184.54 25.811C184.54 26.6408 183.89 27.3028 183.074 27.3028C182.258 27.3028 181.607 26.6408 181.607 25.811C181.607 24.9811 182.258 24.3191 183.074 24.3191ZM187.777 26.9862C188.033 27.6034 188.256 28.2074 188.444 28.7899C187.856 28.9285 187.229 29.0454 186.571 29.1376C186.76 28.8299 186.948 28.5165 187.13 28.1945C187.36 27.7908 187.572 27.3876 187.777 26.9862ZM178.351 26.9872C178.557 27.3911 178.771 27.796 179.002 28.2022C179.182 28.5202 179.366 28.8307 179.554 29.1347C178.897 29.042 178.273 28.9248 177.687 28.786C177.873 28.2053 178.096 27.6026 178.351 26.9872ZM177.405 29.7514C178.29 29.9646 179.249 30.1284 180.266 30.2351C180.945 31.234 181.652 32.1312 182.364 32.9158C182.046 33.2315 181.73 33.5277 181.421 33.7831C180.627 34.4408 179.873 34.8873 179.245 35.0944C178.617 35.3014 178.148 35.2741 177.799 35.0691C177.45 34.8641 177.193 34.4651 177.055 33.8084C176.918 33.1517 176.921 32.2654 177.084 31.2365C177.158 30.7697 177.268 30.2699 177.405 29.7514ZM188.726 29.7553C188.864 30.2766 188.975 30.7788 189.049 31.2481C189.212 32.278 189.216 33.1654 189.078 33.8239C188.94 34.4825 188.68 34.8845 188.328 35.0914C187.976 35.2984 187.503 35.3263 186.874 35.1186C186.244 34.911 185.49 34.4627 184.694 33.8045C184.383 33.5472 184.066 33.2496 183.745 32.9313C184.462 32.1438 185.174 31.2418 185.857 30.237C186.877 30.1311 187.839 29.9682 188.726 29.7553ZM181.542 30.3371C182.044 30.3649 182.553 30.3837 183.074 30.3837C183.577 30.3837 184.07 30.366 184.556 30.34C184.059 31.0219 183.552 31.6418 183.048 32.2C182.544 31.6406 182.038 31.0196 181.542 30.3371Z" fill="black"/>
<circle opacity="0.1" cx="182.806" cy="25.8056" r="15.8404" stroke="black"/>
<circle opacity="0.1" cx="183.074" cy="26.0735" r="23.073" stroke="black"/>
<circle opacity="0.1" cx="182.806" cy="25.8056" r="30.3056" stroke="black"/>
<path opacity="0.4" d="M86.4393 82.9565L86.7593 83.6427L94.119 99.4256L110.588 91.7459L102.908 75.2768L86.4393 82.9565ZM88.4517 83.6889L102.176 77.2892L108.576 91.0135L94.8514 97.4132L88.4517 83.6889ZM93.9789 87.7949L94.5783 89.0802L96.3313 88.2628L98.9369 93.8503L100.379 93.1778L97.7735 87.5903L99.5627 86.756L98.9634 85.4707L93.9789 87.7949ZM101.153 84.5851C100.186 85.1246 99.3813 86.0101 100.028 87.3959C100.978 89.4346 103.725 88.1551 104.154 89.0746C104.194 89.1617 104.528 89.7779 103.558 90.23C102.589 90.6821 101.497 90.4489 101.497 90.4489L102.186 91.9272C102.186 91.9272 107.049 91.3236 105.612 88.2411C104.679 86.2401 101.954 87.6329 101.49 86.6386C101.311 86.253 101.416 85.7644 102.174 85.4109C102.933 85.0573 103.812 85.1923 103.812 85.1923L103.247 83.8517C103.247 83.8517 102.119 84.0455 101.153 84.5851Z" fill="black"/>
<circle opacity="0.1" cx="98.3664" cy="87.2976" r="14.68" transform="rotate(-25 98.3664 87.2976)" stroke="black"/>
<circle opacity="0.1" cx="98.2597" cy="87.2594" r="18.9631" transform="rotate(-25 98.2597 87.2594)" stroke="black"/>
<circle opacity="0.1" cx="98.558" cy="87.558" r="23.247" transform="rotate(-25 98.558 87.558)" stroke="black"/>
<path opacity="0.4" d="M7.33852 20.4965C6.87466 21.4068 5.76045 21.7698 4.84898 21.3054C3.93752 20.841 3.57623 19.7262 4.04008 18.8158L11.883 3.42317C12.2489 2.70521 13.0377 2.30668 13.8331 2.43634C14.6312 2.56877 15.2478 3.19872 15.3637 3.99594L20.5304 39.4566C28.2164 38.3483 35.2826 33.6752 39.0556 26.2703C45.2179 14.176 40.3646 -0.761189 28.2703 -6.92352C16.1761 -13.0858 1.23886 -8.23245 -4.92347 3.8618C-11.0858 15.956 -6.23241 30.8932 5.86184 37.0556C9.37137 38.8438 13.1205 39.6779 16.825 39.7028L12.5395 10.2889L7.33852 20.4965ZM26.7365 9.60644C27.2003 8.69607 28.3145 8.33313 29.226 8.79754C30.1375 9.26196 30.4987 10.3767 30.0349 11.2871L22.2816 26.5038L21.3511 20.1757L26.7365 9.60644Z" fill="#212121"/>
<circle opacity="0.1" cx="16.9852" cy="14.9853" r="29.6769" stroke="black"/>
<circle opacity="0.1" cx="17.1484" cy="15.1484" r="34.0811" stroke="black"/>
<circle opacity="0.1" cx="16.9853" cy="14.9853" r="38.4853" stroke="black"/>
</svg>
