<svg width="1401" height="494" viewBox="0 0 1401 494" fill="none" xmlns="http://www.w3.org/2000/svg">
<path opacity="0.4" d="M1250.26 421.956C1249.23 418.1 1247.17 414.708 1244.35 412.038C1246.66 406.602 1246.31 400.362 1243.36 395.236C1240.54 390.325 1235.98 386.81 1230.52 385.341C1226.68 384.309 1222.72 384.399 1219 385.521C1215.46 380.793 1209.95 377.974 1204.03 377.974C1194.06 377.974 1185.7 384.941 1183.48 394.274C1183.46 394.276 1183.44 394.267 1183.42 394.269C1177.53 395.004 1172.44 398.388 1169.48 403.549C1166.65 408.46 1165.9 414.184 1167.36 419.663C1168.39 423.52 1170.45 426.916 1173.27 429.587C1170.97 435.025 1171.3 441.242 1174.26 446.382C1177.08 451.294 1181.64 454.809 1187.1 456.277C1188.92 456.767 1190.77 457.01 1192.6 457.01C1194.64 457.01 1196.66 456.681 1198.61 456.092C1202.15 460.828 1207.64 463.645 1213.59 463.645C1223.57 463.645 1231.93 456.665 1234.15 447.32C1240 446.607 1245.18 443.229 1248.14 438.07C1250.97 433.158 1251.72 427.435 1250.26 421.956ZM1229.47 389.28C1233.88 390.465 1237.56 393.307 1239.84 397.274C1241.97 400.98 1242.37 405.433 1241 409.446C1240.8 409.319 1240.61 409.178 1240.4 409.058L1221.78 398.259C1221.14 397.894 1220.36 397.898 1219.72 398.272L1199.01 410.594L1198.9 401.197L1216.5 390.996C1220.46 388.703 1225.06 388.097 1229.47 389.28ZM1218.43 415.088L1218.56 426.315L1208.94 432.036L1199.19 426.531L1199.06 415.304L1208.68 409.582L1218.43 415.088ZM1186.94 399.212C1186.94 389.749 1194.61 382.053 1204.03 382.053C1208.31 382.053 1212.34 383.922 1215.12 387.128C1214.9 387.242 1214.68 387.338 1214.47 387.461L1195.84 398.259C1195.21 398.629 1194.82 399.314 1194.83 400.048L1195.1 424.222L1186.94 419.616V399.212ZM1171.29 418.608C1170.11 414.182 1170.71 409.556 1172.99 405.588C1175.15 401.843 1178.73 399.318 1182.92 398.502C1182.91 398.739 1182.88 398.971 1182.88 399.212V420.809C1182.88 421.546 1183.27 422.225 1183.91 422.588L1204.9 434.439L1196.84 439.229L1179.25 429.026C1175.3 426.735 1172.47 423.037 1171.29 418.608ZM1188.15 452.338C1183.74 451.153 1180.06 448.312 1177.78 444.344C1175.64 440.624 1175.24 436.183 1176.61 432.167C1176.82 432.295 1177.01 432.438 1177.22 432.561L1195.84 443.359C1196.16 443.541 1196.51 443.633 1196.86 443.633C1197.22 443.633 1197.58 443.537 1197.9 443.347L1218.61 431.025L1218.72 440.422L1201.12 450.623C1197.17 452.918 1192.56 453.528 1188.15 452.338ZM1230.68 442.407C1230.68 451.869 1223.01 459.565 1213.59 459.565C1209.28 459.565 1205.27 457.691 1202.5 454.478C1202.71 454.364 1202.94 454.278 1203.15 454.156L1221.78 443.357C1222.41 442.988 1222.8 442.303 1222.79 441.568L1222.52 417.397L1230.68 422.003V442.407ZM1244.62 436.03C1242.48 439.763 1238.86 442.325 1234.7 443.135C1234.71 442.89 1234.74 442.651 1234.74 442.407V420.809C1234.74 420.073 1234.34 419.394 1233.7 419.031L1212.72 407.179L1220.77 402.39L1238.37 412.593C1242.32 414.884 1245.15 418.584 1246.33 423.01C1247.51 427.437 1246.91 432.063 1244.62 436.03Z" fill="black"/>
<circle opacity="0.1" cx="1208.48" cy="420.48" r="55.1864" stroke="black"/>
<circle opacity="0.1" cx="1208.81" cy="420.809" r="64.0831" stroke="black"/>
<circle opacity="0.1" cx="1208.48" cy="420.48" r="72.9797" stroke="black"/>
<path opacity="0.4" d="M1304.68 90C1289.57 90 1280.12 97.555 1276.34 112.665C1282.01 105.11 1288.62 102.278 1296.18 104.165C1300.49 105.242 1303.57 108.372 1306.99 111.834C1312.54 117.471 1318.97 123.999 1333.02 123.999C1348.14 123.999 1357.58 116.444 1361.36 101.331C1355.69 108.886 1349.08 111.72 1341.52 109.833C1337.21 108.757 1334.13 105.627 1330.72 102.165C1325.16 96.5253 1318.73 90 1304.68 90ZM1276.34 123.999C1261.23 123.999 1251.78 131.554 1248 146.666C1253.67 139.111 1260.28 136.277 1267.84 138.167C1272.15 139.246 1275.23 142.373 1278.64 145.833C1284.2 151.472 1290.63 158 1304.68 158C1319.8 158 1329.24 150.445 1333.02 135.333C1327.35 142.888 1320.74 145.722 1313.18 143.832C1308.87 142.755 1305.79 139.626 1302.38 136.166C1296.82 130.527 1290.39 123.999 1276.34 123.999Z" fill="black"/>
<circle opacity="0.1" cx="1304.5" cy="123.5" r="69" stroke="black"/>
<circle opacity="0.1" cx="1305" cy="124" r="82.5" stroke="black"/>
<circle opacity="0.1" cx="1304.5" cy="123.5" r="96" stroke="black"/>
<path opacity="0.4" d="M1024.42 262.304L1025.54 262.147C1026.33 262.036 1027.03 261.56 1027.42 260.861L1033.18 250.565L1041.56 258.873C1042.13 259.437 1042.93 259.703 1043.72 259.592L1044.84 259.435L1034.15 248.838L1041.17 236.291L1040.06 236.448C1039.26 236.56 1038.57 237.035 1038.18 237.734L1032.74 247.443L1024.84 239.608C1024.27 239.044 1023.47 238.779 1022.68 238.89L1021.56 239.047L1031.77 249.172L1024.42 262.304Z" fill="#212121"/>
<path opacity="0.4" d="M1023.17 251.343L1022.78 248.51C1021.89 242.204 1015.57 238 1009.22 239.961C1004.27 241.488 1001.31 246.572 1002.03 251.699L1002.13 252.375L1002.39 254.264L1002.41 254.398C1003.28 260.589 1008.49 264.898 1014.25 264.157C1019.07 263.538 1022.68 259.752 1023.3 255.179L1022.33 255.316C1021.75 255.398 1021.26 255.808 1021.08 256.371C1019.92 259.998 1016.39 262.677 1012.07 262.303C1008.07 261.957 1004.94 258.704 1004.39 254.738L1004.28 253.999L1023.17 251.343ZM1003.98 251.835C1003.35 247.388 1005.49 243.38 1009.26 241.963C1014.64 239.944 1020.14 243.44 1020.89 248.775L1021.02 249.72L1004.02 252.109L1003.98 251.835Z" fill="#212121"/>
<circle opacity="0.1" cx="1023" cy="250" r="30.5" transform="rotate(-8 1023 250)" stroke="black"/>
<circle opacity="0.1" cx="1023.26" cy="250.26" r="44" transform="rotate(-8 1023.26 250.26)" stroke="black"/>
<circle opacity="0.1" cx="1022.51" cy="249.508" r="57.5" transform="rotate(-8 1022.51 249.508)" stroke="black"/>
<path opacity="0.4" d="M764.95 85.4801C763.634 84.9215 762.181 84.6864 760.77 84.8543L716.272 90.3469C713.397 90.7036 710.884 92.6227 709.75 95.295L693.841 132.775C692.691 135.484 693.071 138.588 694.811 140.904L701.892 150.302C705.484 154.469 707.105 155.154 709.16 156.026C715.902 158.888 721.49 156.444 724.494 149.366L740.909 110.694C741.155 110.116 740.89 109.445 740.313 109.201L735.807 107.288C735.194 107.028 734.557 107.315 734.311 107.893L717.911 146.53C716.562 149.708 711.967 151.422 707.786 146.536L700.385 136.702C700.101 136.368 700.052 135.881 700.22 135.483L716.115 98.0383C716.299 97.6049 716.671 97.3314 717.123 97.2677L761.619 91.7823C762.035 91.7033 762.47 91.8878 762.738 92.2575L789.701 128.075C789.97 128.445 790.031 128.904 789.863 129.301L773.953 166.781C773.785 167.178 773.399 167.482 772.998 167.524L728.449 173.037C728.048 173.08 727.578 172.88 727.33 172.562L720.448 163.206C720.272 162.919 719.932 162.734 719.618 162.771C716.446 163.129 715.901 163.109 713.169 162.93C712.515 162.866 711.46 162.843 712.834 164.619L721.757 176.764C722.634 177.904 723.784 178.815 725.082 179.366C726.416 179.932 727.861 180.122 729.291 179.962L773.847 174.452C776.721 174.096 779.218 172.213 780.368 169.504L796.263 132.059C797.412 129.351 797.032 126.246 795.292 123.931L768.304 88.0526C767.445 86.9205 766.266 86.0387 764.95 85.4801ZM762.29 118.471C752.087 114.14 744.158 115.885 741.092 123.107C737.766 130.944 742.899 135.676 752.291 140.813C763.518 146.943 763.681 149.064 762.7 151.375C761.014 155.347 757.09 155.686 749.555 152.487C740.073 148.463 738.993 145.188 740.301 140.202C740.444 139.666 740.167 139.121 739.662 138.907L735.008 136.932C734.431 136.687 733.8 136.978 733.57 137.52C731.01 143.55 731.243 152.123 746.89 158.765C758.211 163.57 766.597 161.852 769.908 154.051C773.188 146.323 768.835 142.042 758.503 135.909C747.976 129.735 747.179 128.502 748.283 125.902C749.202 123.735 751.388 121.301 759.608 124.791C766.926 127.897 768.993 130.644 768.01 136.065C767.919 136.581 768.159 137.111 768.664 137.325L773.319 139.301C773.607 139.423 773.916 139.386 774.225 139.261C774.482 139.157 774.715 138.912 774.816 138.571C777.713 129.743 773.755 123.338 762.29 118.471Z" fill="black"/>
<circle opacity="0.1" cx="744.779" cy="131.779" r="73" transform="rotate(23 744.779 131.779)" stroke="black"/>
<circle opacity="0.1" cx="745.044" cy="132.435" r="86.5" transform="rotate(23 745.044 132.435)" stroke="black"/>
<circle opacity="0.1" cx="744.779" cy="131.779" r="100" transform="rotate(23 744.779 131.779)" stroke="black"/>
<path opacity="0.4" d="M467.72 178.003C467.009 177.979 466.264 178.105 465.517 178.351C464.023 178.844 462.458 179.803 460.852 181.132C460.223 181.653 459.587 182.248 458.95 182.88C458.327 182.264 457.705 181.683 457.089 181.174C455.484 179.846 453.923 178.888 452.433 178.396C450.943 177.905 449.46 177.89 448.242 178.605C447.025 179.32 446.296 180.633 445.97 182.191C445.643 183.749 445.677 185.605 446.005 187.682C446.119 188.404 446.284 189.161 446.469 189.932C445.773 190.146 445.097 190.372 444.471 190.621C442.579 191.372 441.015 192.271 439.875 193.34C438.736 194.41 438 195.708 438 197.133C438 198.558 438.736 199.854 439.875 200.924C441.015 201.993 442.579 202.894 444.471 203.645C445.141 203.911 445.866 204.151 446.615 204.377C446.346 205.401 446.127 206.394 445.979 207.336C445.65 209.415 445.616 211.271 445.943 212.833C446.27 214.394 446.999 215.715 448.223 216.433C449.447 217.152 450.936 217.134 452.43 216.642C453.923 216.149 455.487 215.191 457.093 213.862C457.716 213.346 458.347 212.758 458.979 212.133C459.613 212.761 460.247 213.353 460.873 213.872C462.478 215.199 464.041 216.158 465.531 216.649C467.021 217.14 468.502 217.155 469.72 216.44C470.938 215.725 471.666 214.413 471.993 212.854C472.32 211.296 472.284 209.441 471.955 207.363C471.806 206.419 471.588 205.424 471.317 204.397C472.091 204.165 472.839 203.919 473.529 203.645C475.421 202.894 476.985 201.993 478.125 200.924C479.264 199.854 480 198.558 480 197.133C480 195.708 479.264 194.41 478.125 193.34C476.985 192.271 475.421 191.372 473.529 190.621C472.894 190.368 472.208 190.14 471.501 189.923C471.688 189.147 471.853 188.385 471.968 187.659C472.296 185.579 472.331 183.722 472.004 182.16C471.676 180.598 470.946 179.28 469.722 178.561C469.11 178.202 468.432 178.027 467.72 178.003ZM467.636 179.892C468.083 179.904 468.464 180.013 468.79 180.204C469.441 180.587 469.923 181.331 470.18 182.557C470.437 183.783 470.428 185.439 470.125 187.359C470.021 188.017 469.87 188.714 469.699 189.428C467.832 188.971 465.787 188.632 463.608 188.433C462.513 186.89 461.387 185.486 460.253 184.239C460.853 183.644 461.449 183.087 462.03 182.606C463.514 181.378 464.919 180.543 466.091 180.157C466.677 179.963 467.19 179.88 467.636 179.892ZM450.317 179.897C450.766 179.885 451.28 179.968 451.868 180.162C453.044 180.55 454.451 181.385 455.936 182.613C456.506 183.085 457.088 183.629 457.676 184.21C456.533 185.467 455.4 186.885 454.298 188.442C452.126 188.645 450.088 188.987 448.23 189.446C448.06 188.735 447.911 188.041 447.807 187.387C447.504 185.464 447.496 183.806 447.754 182.577C448.012 181.348 448.497 180.599 449.155 180.213C449.484 180.02 449.868 179.91 450.317 179.897ZM458.979 185.576C459.722 186.398 460.466 187.299 461.203 188.268C460.479 188.237 459.745 188.219 459 188.219C458.24 188.219 457.493 188.238 456.754 188.27C457.492 187.3 458.235 186.399 458.979 185.576ZM459 190.093C460.241 190.093 461.451 190.145 462.627 190.233C463.437 191.416 464.228 192.67 464.982 193.998C465.645 195.165 466.244 196.33 466.79 197.481C466.238 198.647 465.629 199.828 464.957 201.011C464.366 202.052 463.749 203.041 463.121 203.995C461.792 204.108 460.415 204.171 459 204.171C457.551 204.171 456.143 204.104 454.784 203.986C454.167 203.046 453.56 202.07 452.979 201.045C452.309 199.865 451.702 198.688 451.152 197.524C451.704 196.354 452.314 195.169 452.988 193.982C453.737 192.661 454.526 191.413 455.332 190.237C456.521 190.147 457.745 190.093 459 190.093ZM464.979 190.465C466.482 190.656 467.894 190.921 469.209 191.239C468.818 192.54 468.338 193.898 467.756 195.3C467.378 194.559 466.986 193.815 466.563 193.07C466.051 192.168 465.518 191.306 464.979 190.465ZM452.925 190.479C452.397 191.305 451.877 192.149 451.374 193.034C450.946 193.789 450.546 194.542 450.164 195.293C449.587 193.899 449.109 192.549 448.722 191.255C450.027 190.937 451.431 190.673 452.925 190.479ZM471.014 191.732C471.661 191.931 472.286 192.139 472.859 192.367C474.602 193.059 475.981 193.879 476.875 194.718C477.769 195.557 478.157 196.357 478.157 197.133C478.157 197.909 477.769 198.709 476.875 199.548C475.981 200.386 474.602 201.207 472.859 201.899C472.222 202.152 471.523 202.381 470.795 202.599C470.276 200.966 469.614 199.263 468.825 197.524C469.732 195.528 470.464 193.582 471.014 191.732ZM446.955 191.741C447.499 193.573 448.222 195.5 449.116 197.476C448.322 199.224 447.657 200.937 447.135 202.579C446.434 202.367 445.758 202.144 445.141 201.899C443.398 201.207 442.019 200.386 441.125 199.548C440.231 198.709 439.843 197.909 439.843 197.133C439.843 196.357 440.231 195.557 441.125 194.718C442.019 193.879 443.398 193.059 445.141 192.367C445.705 192.143 446.319 191.938 446.955 191.741ZM459 192.869C456.491 192.869 454.437 194.958 454.437 197.51C454.437 200.062 456.491 202.151 459 202.151C461.509 202.151 463.563 200.062 463.563 197.51C463.563 194.958 461.509 192.869 459 192.869ZM459 194.725C460.523 194.725 461.738 195.961 461.738 197.51C461.738 199.059 460.523 200.295 459 200.295C457.477 200.295 456.262 199.059 456.262 197.51C456.262 195.961 457.477 194.725 459 194.725ZM467.779 199.704C468.258 200.856 468.674 201.983 469.023 203.07C467.926 203.329 466.757 203.547 465.528 203.719C465.881 203.145 466.231 202.56 466.572 201.959C467 201.205 467.397 200.453 467.779 199.704ZM450.185 199.705C450.569 200.459 450.969 201.215 451.399 201.973C451.736 202.567 452.08 203.146 452.43 203.714C451.204 203.541 450.039 203.322 448.945 203.063C449.293 201.979 449.709 200.854 450.185 199.705ZM448.419 204.865C450.071 205.263 451.861 205.569 453.759 205.768C455.027 207.632 456.347 209.307 457.676 210.771C457.081 211.361 456.493 211.914 455.916 212.39C454.433 213.618 453.026 214.451 451.854 214.838C450.682 215.224 449.807 215.173 449.155 214.791C448.503 214.408 448.023 213.663 447.766 212.438C447.51 211.212 447.517 209.557 447.82 207.637C447.958 206.766 448.163 205.833 448.419 204.865ZM469.551 204.872C469.808 205.845 470.015 206.783 470.153 207.659C470.457 209.581 470.465 211.237 470.207 212.467C469.949 213.696 469.465 214.446 468.807 214.832C468.15 215.219 467.268 215.271 466.093 214.883C464.917 214.495 463.51 213.659 462.025 212.43C461.444 211.95 460.852 211.394 460.253 210.8C461.591 209.33 462.92 207.647 464.196 205.771C466.099 205.574 467.895 205.27 469.551 204.872ZM456.141 205.958C457.078 206.01 458.027 206.045 459 206.045C459.94 206.045 460.859 206.012 461.766 205.964C460.839 207.236 459.894 208.393 458.952 209.435C458.011 208.391 457.067 207.232 456.141 205.958Z" fill="black"/>
<circle opacity="0.1" cx="458.5" cy="197.5" r="30" stroke="black"/>
<circle opacity="0.1" cx="459" cy="198" r="43.5" stroke="black"/>
<circle opacity="0.1" cx="458.5" cy="197.5" r="57" stroke="black"/>
<path opacity="0.4" d="M234.26 370.95L235.268 373.112L258.461 422.849L310.361 398.648L286.159 346.748L234.26 370.95ZM240.601 373.258L283.851 353.09L304.019 396.34L260.769 416.508L240.601 373.258ZM258.02 386.197L259.908 390.248L265.433 387.672L273.644 405.28L278.188 403.161L269.977 385.552L275.616 382.923L273.727 378.873L258.02 386.197ZM280.627 376.082C277.582 377.782 275.044 380.572 277.081 384.94C280.077 391.364 288.732 387.332 290.084 390.23C290.212 390.504 291.263 392.446 288.208 393.871C285.152 395.296 281.711 394.561 281.711 394.561L283.884 399.219C283.884 399.219 299.209 397.317 294.68 387.603C291.739 381.297 283.152 385.687 281.691 382.553C281.124 381.338 281.457 379.798 283.846 378.684C286.236 377.57 289.006 377.995 289.006 377.995L287.227 373.771C287.227 373.771 283.673 374.382 280.627 376.082Z" fill="black"/>
<circle opacity="0.1" cx="271.846" cy="384.63" r="47.3373" transform="rotate(-25 271.846 384.63)" stroke="black"/>
<circle opacity="0.1" cx="272.31" cy="384.799" r="56.7651" transform="rotate(-25 272.31 384.799)" stroke="black"/>
<circle opacity="0.1" cx="271.846" cy="384.63" r="66.1929" transform="rotate(-25 271.846 384.63)" stroke="black"/>
<path opacity="0.4" d="M89.93 165.393C88.5082 168.184 85.0928 169.296 82.299 167.873C79.5051 166.449 78.3976 163.032 79.8195 160.242L103.86 113.059C104.982 110.858 107.4 109.637 109.838 110.034C112.284 110.44 114.174 112.371 114.529 114.815L130.367 223.511C153.926 220.114 175.586 205.79 187.151 183.091C206.04 146.019 191.163 100.233 154.091 81.3439C117.019 62.4547 71.233 77.3316 52.3439 114.404C33.4547 151.476 48.3316 197.262 85.4036 216.151C96.1613 221.632 107.653 224.189 119.008 224.265L105.872 134.104L89.93 165.393ZM149.39 132.012C150.812 129.222 154.227 128.109 157.021 129.533C159.815 130.957 160.922 134.374 159.5 137.164L135.734 183.807L132.882 164.41L149.39 132.012Z" fill="#212121"/>
<circle opacity="0.1" cx="119.5" cy="148.5" r="92" stroke="black"/>
<circle opacity="0.1" cx="120" cy="149" r="105.5" stroke="black"/>
<circle opacity="0.1" cx="119.5" cy="148.5" r="119" stroke="black"/>
</svg>
